<svg width="151" height="248" viewBox="0 0 151 248" fill="none" xmlns="http://www.w3.org/2000/svg">
<rect x="68.8334" y="1.83984" width="6.95225" height="6.95225" fill="#FFB6C3"/>
<rect x="34.8093" y="1.83984" width="6.95225" height="6.95225" fill="#FFB6C3"/>
<rect y="1.83984" width="6.95225" height="6.95225" fill="#FFB6C3"/>
<rect x="108.23" y="0.679688" width="6.95225" height="6.95225" transform="rotate(30 108.23 0.679688)" fill="#FFB6C3"/>
<rect x="146.696" y="0.679688" width="6.95225" height="6.95225" transform="rotate(60 146.696 0.679688)" fill="#FFB6C3"/>
<rect x="68.8359" y="34.0898" width="6.95225" height="6.95225" fill="#FFB6C3"/>
<rect x="34.8093" y="34.0898" width="6.95225" height="6.95225" fill="#FFB6C3"/>
<rect y="34.0898" width="6.95225" height="6.95225" fill="#FFB6C3"/>
<rect x="108.231" y="32.9297" width="6.95225" height="6.95225" transform="rotate(30 108.231 32.9297)" fill="#FFB6C3"/>
<rect x="146.696" y="32.9297" width="6.95225" height="6.95225" transform="rotate(60 146.696 32.9297)" fill="#FFB6C3"/>
<rect x="68.8359" y="66.3398" width="6.95225" height="6.95225" fill="#FFB6C3"/>
<rect x="34.8093" y="66.3398" width="6.95225" height="6.95225" fill="#FFB6C3"/>
<rect y="66.3398" width="6.95225" height="6.95225" fill="#FFB6C3"/>
<rect x="108.118" y="65.1797" width="6.95225" height="6.95225" transform="rotate(30 108.118 65.1797)" fill="#FFB6C3"/>
<rect x="146.696" y="65.1797" width="6.95225" height="6.95225" transform="rotate(60 146.696 65.1797)" fill="#FFB6C3"/>
<rect x="68.8359" y="98.5898" width="6.95225" height="6.95225" fill="#FFB6C3"/>
<rect x="34.8093" y="98.5898" width="6.95225" height="6.95225" fill="#FFB6C3"/>
<rect y="98.5898" width="6.95225" height="6.95225" fill="#FFB6C3"/>
<rect x="108.23" y="97.4297" width="6.95225" height="6.95225" transform="rotate(30 108.23 97.4297)" fill="#FFB6C3"/>
<rect x="146.696" y="97.4297" width="6.95225" height="6.95225" transform="rotate(60 146.696 97.4297)" fill="#FFB6C3"/>
<rect x="68.8359" y="130.84" width="6.95225" height="6.95225" fill="#FFB6C3"/>
<rect x="34.8093" y="130.84" width="6.95225" height="6.95225" fill="#FFB6C3"/>
<rect y="130.84" width="6.95225" height="6.95225" fill="#FFB6C3"/>
<rect x="108.231" y="129.68" width="6.95225" height="6.95225" transform="rotate(30 108.231 129.68)" fill="#FFB6C3"/>
<rect x="146.696" y="129.68" width="6.95225" height="6.95225" transform="rotate(60 146.696 129.68)" fill="#FFB6C3"/>
<rect x="68.8351" y="163.09" width="6.95225" height="6.95225" fill="#FFB6C3"/>
<rect x="34.809" y="163.09" width="6.95225" height="6.95225" fill="#FFB6C3"/>
<rect y="163.09" width="6.95225" height="6.95225" fill="#FFB6C3"/>
<rect x="108.118" y="161.93" width="6.95225" height="6.95225" transform="rotate(30 108.118 161.93)" fill="#FFB6C3"/>
<rect x="146.696" y="161.93" width="6.95225" height="6.95225" transform="rotate(60 146.696 161.93)" fill="#FFB6C3"/>
<rect x="68.8334" y="195.34" width="6.95225" height="6.95225" fill="#FFB6C3"/>
<rect x="34.8093" y="195.34" width="6.95225" height="6.95225" fill="#FFB6C3"/>
<rect y="195.34" width="6.95225" height="6.95225" fill="#FFB6C3"/>
<rect x="108.23" y="194.18" width="6.95225" height="6.95225" transform="rotate(30 108.23 194.18)" fill="#FFB6C3"/>
<rect x="146.696" y="194.18" width="6.95225" height="6.95225" transform="rotate(60 146.696 194.18)" fill="#FFB6C3"/>
<rect x="68.8359" y="227.59" width="6.95225" height="6.95225" fill="#FFB6C3"/>
<rect x="34.8093" y="227.59" width="6.95225" height="6.95225" fill="#FFB6C3"/>
<rect y="227.59" width="6.95225" height="6.95225" fill="#FFB6C3"/>
<rect x="108.231" y="226.43" width="6.95225" height="6.95225" transform="rotate(30 108.231 226.43)" fill="#FFB6C3"/>
<rect x="146.696" y="226.43" width="6.95225" height="6.95225" transform="rotate(60 146.696 226.43)" fill="#FFB6C3"/>
</svg>
