<svg width="1440" height="864" viewBox="0 0 1440 864" fill="none" xmlns="http://www.w3.org/2000/svg">
<g clip-path="url(#clip0_1343_32047)">
<path d="M1220.27 697.169L1963.16 979.938C1947.37 1025.34 1895.41 1057.15 1810.8 1064.23C1809.34 1064.35 1807.89 1064.47 1806.49 1064.44L1288.4 867.239C1287.36 866.17 1286.32 865.1 1285.23 864.18C1225.06 801.997 1204.48 742.576 1220.27 697.169Z" fill="url(#paint0_linear_1343_32047)" fill-opacity="0.8"/>
<path d="M147.895 106.789L-243.728 -130.291C-299.96 -115.263 -342.485 -81.4883 -367 -36.8104L132.686 265.688C157.201 221.01 163.705 165.429 147.895 106.789Z" fill="url(#paint1_linear_1343_32047)" fill-opacity="0.5"/>
</g>
<defs>
<linearGradient id="paint0_linear_1343_32047" x1="1319.68" y1="803.6" x2="1921.42" y2="1040.67" gradientUnits="userSpaceOnUse">
<stop stop-color="#FF2800"/>
<stop offset="1" stop-color="#FFB147" stop-opacity="0.33"/>
</linearGradient>
<linearGradient id="paint1_linear_1343_32047" x1="53.1796" y1="163.562" x2="-314.173" y2="-38.5607" gradientUnits="userSpaceOnUse">
<stop stop-color="#FF2800"/>
<stop offset="0.520264" stop-color="#FFB147" stop-opacity="0.2"/>
</linearGradient>
<clipPath id="clip0_1343_32047">
<rect width="1440" height="864" fill="white"/>
</clipPath>
</defs>
</svg>
