<svg width="283" height="140" viewBox="0 0 283 140" fill="none" xmlns="http://www.w3.org/2000/svg">
<path d="M201.2 33.8249C159.816 -31.9575 80.3089 13.4761 95.6787 62.5424C105.859 95.0425 86.0072 171.042 1 122.042" stroke="#FF2800" stroke-width="2" stroke-dasharray="6 6"/>
<path d="M243.365 51.1079C255.899 37.9127 281.375 11.1264 283 9.54297L227.104 31.3151L243.365 51.1079Z" fill="#FF6C51"/>
<path d="M283 9.54297L226.974 31.6083L201.506 13.5549L283 9.54297Z" fill="#FF6C51"/>
<path d="M283 9.54297L227.24 31.5273L233.323 37.523L218.115 47.5159L214.566 22.5337L283 9.54297Z" fill="#FFA999"/>
<path d="M123.165 93.543H70.8691V125.543H123.165V93.543Z" fill="#FF6C51"/>
<path opacity="0.5" d="M97.0183 112.069L70.8691 93.543H123.166L97.0183 112.069Z" fill="#FFA999"/>
</svg>
