<svg width="283" height="140" viewBox="0 0 283 140" fill="none" xmlns="http://www.w3.org/2000/svg">
<path d="M81.8007 33.8249C123.184 -31.9575 202.691 13.4761 187.322 62.5424C177.141 95.0425 196.993 171.042 282 122.042" stroke="#FF2800" stroke-width="2" stroke-dasharray="6 6"/>
<path d="M39.6354 51.1079C27.1007 37.9127 1.62494 11.1264 0.000582973 9.54297L55.8966 31.3151L39.6354 51.1079Z" fill="#FF6C51"/>
<path d="M1.44042e-05 9.54297L56.0263 31.6083L81.494 13.5549L1.44042e-05 9.54297Z" fill="#FF6C51"/>
<path d="M9.16102e-05 9.54297L55.7603 31.5273L49.6773 37.523L64.8854 47.5159L68.4338 22.5337L9.16102e-05 9.54297Z" fill="#FFA999"/>
<path d="M159.836 93.543H212.132V125.543H159.836V93.543Z" fill="#FF6C51"/>
<path opacity="0.5" d="M185.982 112.069L212.132 93.543H159.834L185.982 112.069Z" fill="#FFA999"/>
</svg>
