<svg width="26" height="26" viewBox="0 0 26 26" fill="none" xmlns="http://www.w3.org/2000/svg">
<path d="M11.9708 16.1971L9.96663 18.2013C9.54413 18.6238 8.87246 18.6238 8.43913 18.2121C8.31996 18.093 8.20079 17.9846 8.08163 17.8655C6.96579 16.7388 5.95829 15.558 5.05913 14.323C4.17079 13.088 3.45579 11.853 2.93579 10.6288C2.42663 9.3938 2.16663 8.21297 2.16663 7.0863C2.16663 6.34964 2.29663 5.64547 2.55663 4.99547C2.81663 4.33464 3.22829 3.72797 3.80246 3.1863C4.49579 2.5038 5.25413 2.16797 6.05579 2.16797C6.35913 2.16797 6.66246 2.23297 6.93329 2.36297C7.21496 2.49297 7.46413 2.68797 7.65913 2.96964L10.1725 6.51214C10.3675 6.78297 10.5083 7.03214 10.6058 7.27047C10.7033 7.49797 10.7575 7.72547 10.7575 7.9313C10.7575 8.1913 10.6816 8.4513 10.53 8.70047C10.3891 8.94964 10.1833 9.20964 9.92329 9.46964L9.09996 10.3255C8.98079 10.4446 8.92663 10.5855 8.92663 10.7588C8.92663 10.8455 8.93746 10.9213 8.95913 11.008C8.99163 11.0946 9.02413 11.1596 9.04579 11.2246C9.24079 11.5821 9.57663 12.048 10.0533 12.6113C10.5408 13.1746 11.0608 13.7488 11.6241 14.323C11.7325 14.4313 11.8516 14.5396 11.96 14.648C12.3933 15.0705 12.4041 15.7638 11.9708 16.1971Z" fill="white"/>
<path d="M23.8009 19.8584C23.8009 20.1618 23.7467 20.4759 23.6384 20.7793C23.6059 20.8659 23.5734 20.9526 23.53 21.0393C23.3459 21.4293 23.1075 21.7976 22.7934 22.1443C22.2625 22.7293 21.6775 23.1518 21.0167 23.4226C21.0059 23.4226 20.995 23.4334 20.9842 23.4334C20.345 23.6934 19.6517 23.8343 18.9042 23.8343C17.7992 23.8343 16.6184 23.5743 15.3725 23.0434C14.1267 22.5126 12.8809 21.7976 11.6459 20.8984C11.2234 20.5843 10.8009 20.2701 10.4 19.9343L13.9425 16.3918C14.2459 16.6193 14.5167 16.7926 14.7442 16.9118C14.7984 16.9334 14.8634 16.9659 14.9392 16.9984C15.0259 17.0309 15.1125 17.0418 15.21 17.0418C15.3942 17.0418 15.535 16.9768 15.6542 16.8576L16.4775 16.0451C16.7484 15.7743 17.0084 15.5684 17.2575 15.4384C17.5067 15.2868 17.7559 15.2109 18.0267 15.2109C18.2325 15.2109 18.4492 15.2543 18.6875 15.3518C18.9259 15.4493 19.175 15.5901 19.4459 15.7743L23.0317 18.3201C23.3134 18.5151 23.5084 18.7426 23.6275 19.0134C23.7359 19.2843 23.8009 19.5551 23.8009 19.8584Z" fill="white"/>
</svg>
