<svg width="23" height="20" viewBox="0 0 23 20" fill="none" xmlns="http://www.w3.org/2000/svg">
<path d="M16.75 0.792969H5.91667C2.66667 0.792969 0.5 2.41797 0.5 6.20964V13.793C0.5 17.5846 2.66667 19.2096 5.91667 19.2096H16.75C20 19.2096 22.1667 17.5846 22.1667 13.793V6.20964C22.1667 2.41797 20 0.792969 16.75 0.792969ZM17.2592 7.39047L13.8683 10.0988C13.1533 10.673 12.2433 10.9546 11.3333 10.9546C10.4233 10.9546 9.5025 10.673 8.79833 10.0988L5.4075 7.39047C5.06083 7.1088 5.00667 6.5888 5.2775 6.24214C5.55917 5.89547 6.06833 5.83047 6.415 6.11214L9.80583 8.82047C10.6292 9.4813 12.0267 9.4813 12.85 8.82047L16.2408 6.11214C16.5875 5.83047 17.1075 5.88464 17.3783 6.24214C17.66 6.5888 17.6058 7.1088 17.2592 7.39047Z" fill="white"/>
</svg>
