<svg width="27" height="26" viewBox="0 0 27 26" fill="none" xmlns="http://www.w3.org/2000/svg">
<path d="M24.4784 12.3626C24.1101 6.07928 18.4009 1.23679 11.8251 2.32012C7.29677 3.06762 3.66761 6.7401 2.96345 11.2684C2.55178 13.8901 3.09347 16.3709 4.2743 18.4184L3.31012 22.0043C3.09345 22.8168 3.84093 23.5534 4.6426 23.3259L8.17428 22.3509C9.77761 23.2934 11.6518 23.8351 13.6559 23.8351C19.7659 23.8351 24.8359 18.4509 24.4784 12.3626ZM18.9535 17.0318C18.856 17.2268 18.7368 17.411 18.5851 17.5843C18.3143 17.8768 18.0218 18.0934 17.6968 18.2234C17.3718 18.3643 17.0143 18.4293 16.6351 18.4293C16.0826 18.4293 15.4868 18.2993 14.8693 18.0285C14.2409 17.7576 13.6235 17.4001 13.006 16.9559C12.3776 16.5009 11.7926 15.9918 11.2293 15.4393C10.666 14.8759 10.1676 14.2801 9.71259 13.6626C9.26843 13.0451 8.91095 12.4276 8.65095 11.8101C8.39095 11.1926 8.26096 10.5968 8.26096 10.0335C8.26096 9.66512 8.32595 9.30762 8.45595 8.98262C8.58595 8.64678 8.79181 8.34345 9.08431 8.07262C9.43097 7.72595 9.81012 7.56345 10.2109 7.56345C10.3626 7.56345 10.5143 7.59595 10.6551 7.66095C10.7959 7.72595 10.9259 7.82345 11.0234 7.96428L12.2801 9.74093C12.3776 9.88176 12.4534 10.0009 12.4968 10.1201C12.5509 10.2393 12.5726 10.3476 12.5726 10.4559C12.5726 10.5859 12.5293 10.716 12.4535 10.846C12.3776 10.976 12.2801 11.1059 12.1501 11.2359L11.7384 11.6693C11.6734 11.7343 11.6518 11.7993 11.6518 11.8859C11.6518 11.9293 11.6626 11.9726 11.6734 12.0159C11.6951 12.0593 11.706 12.0918 11.7168 12.1243C11.8143 12.3084 11.9876 12.5359 12.2259 12.8176C12.4751 13.0993 12.7351 13.3918 13.0168 13.6734C13.3093 13.9659 13.591 14.2259 13.8835 14.4751C14.1651 14.7134 14.4034 14.8759 14.5876 14.9734C14.6201 14.9843 14.6526 15.0059 14.6851 15.0168C14.7285 15.0384 14.7718 15.0384 14.826 15.0384C14.9235 15.0384 14.9885 15.0059 15.0535 14.9409L15.4651 14.5293C15.6059 14.3884 15.736 14.2909 15.8551 14.2259C15.9851 14.1501 16.1043 14.1068 16.2451 14.1068C16.3535 14.1068 16.4618 14.1284 16.581 14.1826C16.7001 14.2368 16.8301 14.3018 16.9601 14.3993L18.7585 15.6776C18.8993 15.7751 18.9968 15.8943 19.0618 16.0243C19.1159 16.1651 19.1484 16.2951 19.1484 16.4468C19.0834 16.6309 19.0401 16.8368 18.9535 17.0318Z" fill="white"/>
</svg>
