<svg width="66" height="104" viewBox="0 0 66 104" fill="none" xmlns="http://www.w3.org/2000/svg">
<rect x="30.2524" y="0.509766" width="3.05551" height="3.05551" fill="#151615"/>
<rect x="15.2983" y="0.509766" width="3.05551" height="3.05551" fill="#151615"/>
<rect y="0.509766" width="3.05551" height="3.05551" fill="#151615"/>
<rect x="47.5671" width="3.05551" height="3.05551" transform="rotate(30 47.5671 0)" fill="#151615"/>
<rect x="64.4722" width="3.05551" height="3.05551" transform="rotate(60 64.4722 0)" fill="#151615"/>
<rect x="30.2524" y="14.6836" width="3.05551" height="3.05551" fill="#151615"/>
<rect x="15.2983" y="14.6836" width="3.05551" height="3.05551" fill="#151615"/>
<rect y="14.6836" width="3.05551" height="3.05551" fill="#151615"/>
<rect x="47.5671" y="14.1738" width="3.05551" height="3.05551" transform="rotate(30 47.5671 14.1738)" fill="#151615"/>
<rect x="64.4722" y="14.1738" width="3.05551" height="3.05551" transform="rotate(60 64.4722 14.1738)" fill="#151615"/>
<rect x="30.2524" y="28.8574" width="3.05551" height="3.05551" fill="#151615"/>
<rect x="15.2983" y="28.8574" width="3.05551" height="3.05551" fill="#151615"/>
<rect y="28.8574" width="3.05551" height="3.05551" fill="#151615"/>
<rect x="47.5173" y="28.3477" width="3.05551" height="3.05551" transform="rotate(30 47.5173 28.3477)" fill="#151615"/>
<rect x="64.4722" y="28.3477" width="3.05551" height="3.05551" transform="rotate(60 64.4722 28.3477)" fill="#151615"/>
<rect x="30.2524" y="43.0312" width="3.05551" height="3.05551" fill="#151615"/>
<rect x="15.2983" y="43.0312" width="3.05551" height="3.05551" fill="#151615"/>
<rect y="43.0312" width="3.05551" height="3.05551" fill="#151615"/>
<rect x="47.5671" y="42.5215" width="3.05551" height="3.05551" transform="rotate(30 47.5671 42.5215)" fill="#151615"/>
<rect x="64.4722" y="42.5215" width="3.05551" height="3.05551" transform="rotate(60 64.4722 42.5215)" fill="#151615"/>
<rect x="30.2524" y="57.2051" width="3.05551" height="3.05551" fill="#151615"/>
<rect x="15.2983" y="57.2051" width="3.05551" height="3.05551" fill="#151615"/>
<rect y="57.2051" width="3.05551" height="3.05551" fill="#151615"/>
<rect x="47.5671" y="56.6953" width="3.05551" height="3.05551" transform="rotate(30 47.5671 56.6953)" fill="#151615"/>
<rect x="64.4722" y="56.6953" width="3.05551" height="3.05551" transform="rotate(60 64.4722 56.6953)" fill="#151615"/>
<rect x="30.2524" y="71.3789" width="3.05551" height="3.05551" fill="#151615"/>
<rect x="15.2983" y="71.3789" width="3.05551" height="3.05551" fill="#151615"/>
<rect y="71.3789" width="3.05551" height="3.05551" fill="#151615"/>
<rect x="47.5173" y="70.8691" width="3.05551" height="3.05551" transform="rotate(30 47.5173 70.8691)" fill="#151615"/>
<rect x="64.4722" y="70.8691" width="3.05551" height="3.05551" transform="rotate(60 64.4722 70.8691)" fill="#151615"/>
<rect x="30.2524" y="85.5527" width="3.05551" height="3.05551" fill="#151615"/>
<rect x="15.2983" y="85.5527" width="3.05551" height="3.05551" fill="#151615"/>
<rect y="85.5527" width="3.05551" height="3.05551" fill="#151615"/>
<rect x="47.5671" y="85.043" width="3.05551" height="3.05551" transform="rotate(30 47.5671 85.043)" fill="#151615"/>
<rect x="64.4722" y="85.043" width="3.05551" height="3.05551" transform="rotate(60 64.4722 85.043)" fill="#151615"/>
<rect x="30.2524" y="99.7266" width="3.05551" height="3.05551" fill="#151615"/>
<rect x="15.2983" y="99.7266" width="3.05551" height="3.05551" fill="#151615"/>
<rect y="99.7266" width="3.05551" height="3.05551" fill="#151615"/>
<rect x="47.5671" y="99.2168" width="3.05551" height="3.05551" transform="rotate(30 47.5671 99.2168)" fill="#151615"/>
<rect x="64.4722" y="99.2168" width="3.05551" height="3.05551" transform="rotate(60 64.4722 99.2168)" fill="#151615"/>
</svg>
