<svg xmlns="http://www.w3.org/2000/svg" width="48" height="48" viewBox="0 0 48 48">
  <g id="menu" transform="translate(6 -67.439)">
    <rect id="Rectangle_202" data-name="Rectangle 202" width="48" height="48" transform="translate(-6 67.439)" fill="none"/>
    <path id="Path_4014" data-name="Path 4014" d="M138.794,17.2a25.715,25.715,0,0,1-3.722-.421,6.513,6.513,0,0,1-4.814-6.3,37.893,37.893,0,0,1,.14-4.992A6.541,6.541,0,0,1,136.666.021a38.427,38.427,0,0,1,5.177.135,6.433,6.433,0,0,1,5.434,6.081,29.639,29.639,0,0,1-.152,5.541,6.414,6.414,0,0,1-6.157,5.274c-.719.034-1.441.005-2.162.005q-.006.069-.012.139" transform="translate(-112.765 74.815)" fill="#ff2800"/>
    <path id="Path_4015" data-name="Path 4015" d="M138.648,187.5a30.9,30.9,0,0,1-4.175-.288,5.6,5.6,0,0,1-4.322-6.126,5.72,5.72,0,0,1,5.563-5.061q3-.027,5.994,0a5.681,5.681,0,0,1,.28,11.346c-1.108.062-2.223.01-3.335.01,0,.039,0,.079,0,.118" transform="translate(-112.651 -79.436)" fill="#ff2800"/>
    <path id="Path_4016" data-name="Path 4016" d="M11.479,8.618a30.171,30.171,0,0,1-.246,4.117,5.587,5.587,0,0,1-6.32,4.356A5.644,5.644,0,0,1,.03,11.648c-.039-2.058-.043-4.119,0-6.177A5.638,5.638,0,0,1,5.616.067,5.636,5.636,0,0,1,11.386,5.4c.042,1.069.007,2.141.007,3.212Z" transform="translate(1.377 74.756)" fill="#ff2800"/>
    <path id="Path_4017" data-name="Path 4017" d="M5.913,187.481a5.691,5.691,0,1,1,5.746-5.618,5.636,5.636,0,0,1-5.746,5.618" transform="translate(1.121 -79.517)" fill="#ff2800"/>
  </g>
</svg>
