<svg id="Group_1020" data-name="Group 1020" xmlns="http://www.w3.org/2000/svg" xmlns:xlink="http://www.w3.org/1999/xlink" width="247.703" height="47.583" viewBox="0 0 247.703 47.583">
  <defs>
    <clipPath id="clip-path">
      <rect id="Rectangle_336" data-name="Rectangle 336" width="247.703" height="47.583" fill="none"/>
    </clipPath>
  </defs>
  <g id="Group_1019" data-name="Group 1019" clip-path="url(#clip-path)">
    <path id="Path_2048" data-name="Path 2048" d="M823.386,60.155h-6.124c-.017-.388-.046-.742-.046-1.1q.008-12.323.026-24.646a5.33,5.33,0,0,0-1.041-3.55,4.757,4.757,0,0,0-3.807-1.827c-1.6-.017-3.2-.012-4.794,0a4.749,4.749,0,0,0-5.015,5.014q-.026,12.449-.027,24.9c0,.362,0,.724,0,1.161h-6.224c0-.335,0-.684,0-1.032q.006-12.281.005-24.562a8.118,8.118,0,0,0-.144-1.836,4.69,4.69,0,0,0-4.5-3.631c-1.765-.044-3.533-.041-5.3,0a4.733,4.733,0,0,0-4.672,4.319,11.471,11.471,0,0,0-.052,1.259q0,12.2,0,24.394v1.124H775.5c-.015-.315-.039-.588-.039-.86q0-12.533,0-25.067c.008-5.981,3.826-10.561,9.748-11.248a42,42,0,0,1,8.467.109,9.64,9.64,0,0,1,5.764,3.051l.7-.6a10.713,10.713,0,0,1,7.157-2.688,50.823,50.823,0,0,1,6.632.148,10.746,10.746,0,0,1,9.512,10.774c.075,8.607.015,17.216.01,25.824,0,.164-.034.327-.062.574" transform="translate(-644.986 -18.955)" fill="#383838"/>
    <path id="Path_2049" data-name="Path 2049" d="M569.705,54.075h6.134c.064.816.062,1.6.2,2.362a4.494,4.494,0,0,0,4.124,3.809,51.021,51.021,0,0,0,6.214,0,4.579,4.579,0,0,0,4.193-4.573q.032-1.6,0-3.2a4.568,4.568,0,0,0-4.1-4.568c-1.92-.171-3.863-.088-5.8-.111a10.8,10.8,0,0,1-10.675-8.637,18.285,18.285,0,0,1,.092-8.094,10.882,10.882,0,0,1,10.39-8.17,50.143,50.143,0,0,1,6.883.149,10.751,10.751,0,0,1,9.426,10.833c.005.443,0,.885,0,1.387h-6.211c0-.47.007-.936,0-1.4a4.721,4.721,0,0,0-4.579-4.76c-1.82-.062-3.645-.058-5.466,0a4.671,4.671,0,0,0-4.566,4.335,19.2,19.2,0,0,0,.077,4.19,4.58,4.58,0,0,0,4.617,3.954c2.213.043,4.437-.046,6.635.158a10.775,10.775,0,0,1,9.453,10.113,27.731,27.731,0,0,1-.276,6.19,10.675,10.675,0,0,1-10.283,8.473,37.764,37.764,0,0,1-7.544-.234,10.759,10.759,0,0,1-8.933-10.845c0-.441,0-.881,0-1.358" transform="translate(-473.753 -19.003)" fill="#383838"/>
    <path id="Path_2050" data-name="Path 2050" d="M1133.12,60.2h-6.132V47.865h-14.679V60.172h-6.192c-.013-.269-.038-.538-.038-.807q-.007-12.912-.006-25.824a10.945,10.945,0,0,1,10.249-10.63,49.67,49.67,0,0,1,7.638.16,10.785,10.785,0,0,1,9.179,10.374c.039,8.72.014,17.44.014,26.16,0,.165-.017.329-.033.594m-6.2-18.664c0-2.786.123-5.479-.036-8.155a4.62,4.62,0,0,0-4.676-4.3q-2.605-.052-5.212,0a4.741,4.741,0,0,0-4.708,4.807c-.016,1.961,0,3.923,0,5.885,0,.578,0,1.156,0,1.759Z" transform="translate(-919.973 -18.997)" fill="#383838"/>
    <path id="Path_2051" data-name="Path 2051" d="M371.375,46.946V60.3h-6.209v-.9q0-12.57,0-25.14A10.931,10.931,0,0,1,376.419,23a53.741,53.741,0,0,1,6.627.184,10.767,10.767,0,0,1,9.168,10.371,28.191,28.191,0,0,1-.348,6.013,10.586,10.586,0,0,1-10.129,8.306c-2.6.057-5.2-.059-7.8-.208a12.35,12.35,0,0,1-2.561-.723m7.283-5.253v0c.9,0,1.794.015,2.69,0a4.732,4.732,0,0,0,4.682-4.655c.028-1.036.025-2.074,0-3.111a4.736,4.736,0,0,0-4.558-4.706c-1.847-.069-3.7-.068-5.548,0a4.728,4.728,0,0,0-4.551,4.706c-.019,1.065-.027,2.131,0,3.195a4.716,4.716,0,0,0,4.589,4.568c.9.024,1.794,0,2.69,0" transform="translate(-303.725 -19.122)" fill="#383838"/>
    <path id="Path_2052" data-name="Path 2052" d="M1332.168,46.851c-3.716,1.623-7.485,1.12-11.171.948-5.083-.238-9.5-4.971-9.685-10.164a26.682,26.682,0,0,1,.33-6.265A10.7,10.7,0,0,1,1322.081,23a57.059,57.059,0,0,1,7.132.189,10.7,10.7,0,0,1,9.1,10.169c.077,8.8.03,17.6.032,26.4,0,.162-.027.323-.046.536h-6.129Zm-7.374-5.169c.9,0,1.794.017,2.69,0a4.714,4.714,0,0,0,4.65-4.677q.027-1.555,0-3.111a4.709,4.709,0,0,0-4.483-4.679c-1.874-.08-3.756-.068-5.632,0a4.517,4.517,0,0,0-4.388,3.818,18.055,18.055,0,0,0-.055,4.6,4.588,4.588,0,0,0,4.78,4.059c.813.008,1.625,0,2.438,0" transform="translate(-1090.651 -19.11)" fill="#383838"/>
    <path id="Path_2053" data-name="Path 2053" d="M141.88,23.4a35,35,0,0,1-5.065-.573,8.864,8.864,0,0,1-6.551-8.572,51.573,51.573,0,0,1,.19-6.794,8.9,8.9,0,0,1,8.53-7.437,52.3,52.3,0,0,1,7.046.184,8.755,8.755,0,0,1,7.4,8.276,40.334,40.334,0,0,1-.206,7.542,8.729,8.729,0,0,1-8.38,7.178c-.979.046-1.962.007-2.943.007q-.008.094-.016.189" transform="translate(-108.33 0)" fill="#ff2800"/>
    <path id="Path_2054" data-name="Path 2054" d="M141.729,191.646a42.045,42.045,0,0,1-5.682-.392,7.622,7.622,0,0,1-5.882-8.337,7.785,7.785,0,0,1,7.571-6.888q4.078-.036,8.157,0a7.731,7.731,0,0,1,.381,15.442c-1.508.085-3.025.014-4.538.014,0,.053,0,.107-.006.161" transform="translate(-108.222 -146.396)" fill="#ff2800"/>
    <path id="Path_2055" data-name="Path 2055" d="M15.623,11.7a41.062,41.062,0,0,1-.335,5.6c-.758,3.936-4.418,6.357-8.6,5.928A7.681,7.681,0,0,1,.041,15.828c-.054-2.8-.058-5.606.005-8.407A7.673,7.673,0,0,1,7.643.067,7.67,7.67,0,0,1,15.5,7.329c.058,1.455.009,2.914.009,4.371Z" transform="translate(0 -0.056)" fill="#ff2800"/>
    <path id="Path_2056" data-name="Path 2056" d="M7.942,191.589a7.745,7.745,0,1,1,.35-15.485,7.745,7.745,0,0,1-.35,15.485" transform="translate(-0.242 -146.473)" fill="#ff2800"/>
  </g>
</svg>
