<svg width="186" height="35" viewBox="0 0 186 35" fill="none" xmlns="http://www.w3.org/2000/svg">
<path d="M133.444 32.9968H128.565C128.551 32.6853 128.528 32.4011 128.528 32.1137C128.532 25.518 128.539 18.9223 128.549 12.3267C128.619 11.3073 128.324 10.2963 127.719 9.47655C127.36 9.01326 126.899 8.63985 126.373 8.38542C125.847 8.131 125.269 8.00243 124.686 8.00975C123.411 7.9961 122.136 8.00011 120.866 8.00975C120.333 7.97874 119.8 8.06162 119.301 8.25294C118.802 8.44426 118.349 8.7397 117.972 9.11986C117.594 9.50001 117.301 9.95629 117.111 10.4587C116.921 10.9612 116.839 11.4984 116.87 12.0352C116.856 18.6983 116.849 25.362 116.848 32.0261C116.848 32.3168 116.848 32.6074 116.848 32.9583H111.889C111.889 32.6893 111.889 32.4091 111.889 32.1297C111.892 25.5565 111.893 18.9833 111.893 12.4102C111.91 11.916 111.871 11.4215 111.778 10.9361C111.589 10.1164 111.134 9.38394 110.484 8.85556C109.834 8.32719 109.027 8.03337 108.192 8.02099C106.786 7.98566 105.377 7.98807 103.969 8.02099C103.032 8.02954 102.131 8.38941 101.443 9.03045C100.755 9.67149 100.328 10.5478 100.246 11.4885C100.214 11.8244 100.2 12.1618 100.205 12.4993C100.205 19.0291 100.205 25.5573 100.205 32.084V32.9864H95.2874C95.2755 32.7335 95.2563 32.5143 95.2563 32.2959C95.2563 25.5878 95.2563 18.8795 95.2563 12.1709C95.2627 7.36908 98.305 3.69203 103.024 3.14047C105.27 2.94057 107.53 2.96989 109.771 3.22799C111.538 3.48206 113.161 4.34815 114.363 5.67748L114.921 5.19577C116.494 3.79422 118.524 3.0259 120.624 3.03771C122.386 2.96132 124.152 3.00101 125.909 3.15653C128.009 3.40108 129.945 4.41996 131.345 6.01696C132.744 7.61397 133.508 9.67616 133.488 11.8064C133.548 18.7165 133.5 25.6282 133.496 32.5392C133.496 32.6708 133.469 32.8017 133.447 33" fill="#383838"/>
<path d="M72.3176 24.4114H76.4905C76.5341 24.9707 76.5327 25.5081 76.6266 26.0304C76.7306 26.7218 77.0651 27.357 77.5749 27.8315C78.0848 28.306 78.7398 28.5916 79.4322 28.6412C80.84 28.7278 82.2517 28.7278 83.6595 28.6412C84.4387 28.5748 85.1645 28.2156 85.6929 27.6349C86.2214 27.0542 86.5138 26.2945 86.512 25.5067C86.5265 24.7756 86.5265 24.0445 86.512 23.3133C86.5161 22.5356 86.2327 21.7842 85.7171 21.2054C85.2015 20.6266 84.4906 20.2619 83.7228 20.1822C82.4166 20.065 81.0948 20.1219 79.777 20.1061C78.073 20.1211 76.4167 19.5387 75.0919 18.4587C73.7671 17.3787 72.8561 15.8683 72.5149 14.186C72.1241 12.3552 72.1455 10.4595 72.5774 8.63808C72.9823 7.05241 73.8937 5.645 75.1711 4.63295C76.4485 3.62091 78.0209 3.06045 79.6457 3.03805C81.2071 2.96397 82.7716 2.99809 84.3282 3.14018C86.1175 3.36386 87.7618 4.24556 88.9453 5.61602C90.1288 6.98649 90.7682 8.74912 90.7407 10.5655C90.7441 10.8692 90.7407 11.1721 90.7407 11.5162H86.5154C86.5154 11.1941 86.5202 10.8747 86.5154 10.5566C86.5227 9.71038 86.2007 8.89492 85.6184 8.28504C85.0361 7.67515 84.2398 7.31936 83.4003 7.29394C82.1622 7.25144 80.9206 7.25418 79.6818 7.29394C78.8896 7.30983 78.1318 7.62338 77.5571 8.17308C76.9825 8.72279 76.6324 9.46899 76.5756 10.2653C76.489 11.2217 76.5065 12.1848 76.628 13.1373C76.732 13.8979 77.1091 14.5937 77.6878 15.0931C78.2666 15.5925 79.007 15.8609 79.7689 15.8475C81.2744 15.877 82.7874 15.816 84.2827 15.9558C85.992 16.1662 87.5732 16.9761 88.749 18.2436C89.9249 19.5111 90.6204 21.1552 90.7135 22.8877C90.8084 24.3046 90.7454 25.7277 90.5257 27.1305C90.1862 28.7544 89.3088 30.2137 88.0377 31.269C86.7665 32.3244 85.1771 32.913 83.5303 32.9382C81.8185 33.0576 80.0992 33.0039 78.3981 32.7779C76.6691 32.4783 75.1044 31.563 73.9889 30.1986C72.8735 28.8342 72.2816 27.1115 72.321 25.3443C72.321 25.042 72.321 24.7404 72.321 24.4134" fill="#383838"/>
<path d="M159.57 33H154.684V23.0969H142.987V32.9775H138.053C138.043 32.7616 138.023 32.5456 138.023 32.3296C138.019 25.4187 138.017 18.5078 138.018 11.5969C138.076 9.40396 138.947 7.31233 140.458 5.73311C141.969 4.15389 144.012 3.2013 146.185 3.06259C148.214 2.94792 150.248 2.99086 152.271 3.19105C154.266 3.49309 156.093 4.49314 157.43 6.01596C158.768 7.53877 159.53 9.4872 159.585 11.5198C159.616 18.5206 159.596 25.5215 159.596 32.5223C159.596 32.6548 159.582 32.7864 159.57 32.9992M154.629 18.0148C154.629 15.7781 154.727 13.616 154.601 11.4676C154.536 10.5213 154.113 9.636 153.42 8.99389C152.727 8.35177 151.816 8.00159 150.875 8.01536C149.491 7.98753 148.107 7.98753 146.722 8.01536C146.223 8.01881 145.731 8.12157 145.272 8.31772C144.813 8.51387 144.397 8.79953 144.049 9.15826C143.7 9.51699 143.425 9.94169 143.24 10.4079C143.055 10.8741 142.963 11.3726 142.97 11.8747C142.957 13.449 142.97 15.0242 142.97 16.5994C142.97 17.0635 142.97 17.5275 142.97 18.0116L154.629 18.0148Z" fill="#383838"/>
<path d="M51.0886 22.2684V33H46.1363V32.2767C46.1363 25.5424 46.1363 18.808 46.1363 12.0737C46.0999 10.8759 46.3072 9.68338 46.7453 8.56935C47.1835 7.45532 47.8432 6.44338 48.6839 5.59579C49.5246 4.7482 50.5286 4.08288 51.634 3.64075C52.7394 3.19863 53.9228 2.98905 55.1116 3.0249C56.8749 2.96455 58.6401 3.01393 60.3973 3.17277C62.3941 3.47422 64.2216 4.47491 65.5589 5.99909C66.8962 7.52327 67.6577 9.47346 67.7096 11.5071C67.7886 13.1232 67.6956 14.7432 67.4321 16.3393C67.0243 18.204 66.0058 19.8762 64.5404 21.0869C63.075 22.2977 61.2479 22.9765 59.3532 23.0142C57.2795 23.06 55.2058 22.9668 53.132 22.847C52.4323 22.7281 51.7475 22.5333 51.0894 22.266M56.8982 18.0446C57.6161 18.0446 58.3291 18.0566 59.0438 18.0446C60.0273 18.0343 60.9679 17.6375 61.6654 16.9388C62.3629 16.2401 62.7622 15.2946 62.7781 14.3037C62.8004 13.4712 62.7981 12.637 62.7781 11.8037C62.7726 10.8227 62.3915 9.88183 61.7141 9.17721C61.0368 8.47259 60.1156 8.05868 59.1427 8.02182C57.6695 7.96637 56.1916 7.96718 54.7176 8.02182C53.7452 8.05852 52.8244 8.47256 52.148 9.17737C51.4715 9.88218 51.0916 10.8232 51.0877 11.8037C51.0726 12.6595 51.0662 13.5162 51.0877 14.3712C51.1175 15.3382 51.5133 16.2571 52.1938 16.9396C52.8743 17.6221 53.7881 18.0166 54.7479 18.0422C55.4658 18.0615 56.1788 18.0422 56.8935 18.0422" fill="#383838"/>
<path d="M180.782 22.1969C177.818 23.5012 174.812 23.097 171.872 22.9588C167.818 22.7675 164.295 18.964 164.148 14.7908C164.038 13.108 164.127 11.4181 164.411 9.75611C164.833 7.84842 165.888 6.14266 167.402 4.91996C168.915 3.69726 170.797 3.03059 172.737 3.02982C174.634 2.96084 176.534 3.01157 178.425 3.1817C180.39 3.47957 182.19 4.45883 183.515 5.95063C184.84 7.44243 185.607 9.35328 185.683 11.3537C185.745 18.4256 185.707 25.4974 185.709 32.5693C185.709 32.6994 185.687 32.8288 185.672 33H180.784L180.782 22.1969ZM174.901 18.043C175.618 18.043 176.332 18.0567 177.046 18.043C178.029 18.0296 178.968 17.6286 179.662 16.9261C180.355 16.2235 180.747 15.2752 180.755 14.2845C180.769 13.4514 180.769 12.6181 180.755 11.7844C180.75 10.8157 180.376 9.88571 179.711 9.18618C179.046 8.48664 178.14 8.0708 177.179 8.02431C175.685 7.96002 174.184 7.96967 172.687 8.02431C171.839 8.03845 171.022 8.35399 170.382 8.91531C169.742 9.47663 169.319 10.2477 169.188 11.0925C169.016 12.3178 169.002 13.5601 169.144 14.7892C169.25 15.7188 169.703 16.5731 170.41 17.1788C171.118 17.7845 172.028 18.0963 172.956 18.0511C173.605 18.0575 174.252 18.0511 174.901 18.0511" fill="#383838"/>
<path d="M21.5398 17.8458C22.8336 18.0909 24.1596 18.0929 25.4749 18.1457C26.234 18.1457 26.9945 18.1762 27.752 18.1402C29.307 18.1023 30.8014 17.5238 31.9827 16.5023C33.1641 15.4808 33.9599 14.079 34.2358 12.5337C34.4712 10.5794 34.5245 8.60712 34.3952 6.64278C34.3282 5.06325 33.7211 3.55596 32.6772 2.3774C31.6333 1.19884 30.2171 0.421836 28.6697 0.178598C26.8577 0.00699015 25.0363 -0.0410249 23.218 0.03488C21.6212 0.0800883 20.0897 0.684281 18.8857 1.74399C17.6817 2.80371 16.8801 4.25302 16.6181 5.84374C16.4536 7.60743 16.4045 9.38016 16.4711 11.1504C16.4685 12.6739 16.9638 14.1557 17.8802 15.3662C18.7966 16.5767 20.0829 17.4482 21.5398 17.8458Z" fill="#FF2800"/>
<path d="M21.016 34.3093C22.4687 34.5115 23.9386 34.4881 25.405 34.4897C26.5722 34.4897 27.7426 34.5452 28.906 34.4788C30.4382 34.3714 31.8705 33.6698 32.9044 32.5201C33.9383 31.3705 34.4942 29.8614 34.4564 28.3073C34.4185 26.7531 33.7897 25.2736 32.701 24.177C31.6123 23.0804 30.1476 22.4511 28.612 22.4203C26.5141 22.4016 24.4164 22.4016 22.319 22.4203C20.8676 22.4509 19.4763 23.0126 18.4025 24.0015C17.3287 24.9903 16.645 26.3394 16.4781 27.7991C16.3057 29.26 16.6741 30.7339 17.5121 31.9361C18.3501 33.1384 19.5984 33.9838 21.016 34.3093Z" fill="#FF2800"/>
<path d="M11.9991 9.10177C11.9991 10.5678 12.0131 12.0298 11.8281 13.4823C11.2416 16.5612 8.40992 18.455 5.17435 18.1194C3.77735 17.9281 2.49312 17.2408 1.55106 16.1805C0.608997 15.1201 0.0704605 13.7556 0.0316458 12.3308C-0.0101334 10.1406 -0.0132282 7.94562 0.0355142 5.75457C0.0987486 4.21658 0.744009 2.76195 1.83793 1.69132C2.93185 0.620689 4.3908 0.0159146 5.91323 0.00199611C7.45871 -0.0382983 8.95873 0.532797 10.0941 1.59374C11.2294 2.65469 11.9104 4.12171 11.9921 5.68261C12.037 6.82076 11.9991 7.96205 11.9991 9.10177Z" fill="#FF2800"/>
<path d="M5.97131 34.5189C5.17661 34.5101 4.39154 34.3425 3.66158 34.0258C2.93163 33.7091 2.27129 33.2496 1.71884 32.674C1.16638 32.0984 0.732783 31.418 0.443165 30.6723C0.153547 29.9266 0.0136656 29.1304 0.0316243 28.3299C0.049583 27.5293 0.225025 26.7403 0.547786 26.0086C0.870547 25.2768 1.33421 24.6169 1.91192 24.067C2.48962 23.5171 3.16989 23.0881 3.9133 22.805C4.65671 22.5219 5.4485 22.3902 6.24278 22.4176C7.82297 22.4721 9.31813 23.1521 10.4039 24.3101C11.4898 25.4681 12.0787 27.0108 12.0429 28.6034C12.0072 30.1961 11.3497 31.7103 10.2131 32.8177C9.07646 33.9251 7.55233 34.5364 5.97131 34.5189Z" fill="#FF2800"/>
</svg>
