<svg width="150" height="31" viewBox="0 0 150 31" fill="none" xmlns="http://www.w3.org/2000/svg">
<path d="M108.032 26.8301H104.324C104.313 26.5773 104.296 26.3468 104.296 26.1138C104.299 20.7666 104.304 15.4194 104.312 10.0722C104.365 9.24553 104.141 8.42576 103.681 7.76169C103.408 7.38589 103.058 7.08311 102.658 6.87687C102.258 6.67063 101.82 6.56648 101.376 6.5725C100.408 6.56132 99.4384 6.56476 98.473 6.5725C98.0684 6.54679 97.6633 6.61365 97.2844 6.76869C96.9055 6.92373 96.5613 7.16344 96.2745 7.47206C95.9876 7.78068 95.7647 8.15123 95.6203 8.55935C95.4758 8.96746 95.4131 9.4039 95.4363 9.83999C95.4257 15.2417 95.4201 20.6439 95.4196 26.0467V26.8025H91.6505V26.131C91.6505 20.7998 91.6505 15.471 91.6505 10.1444C91.6638 9.74371 91.6346 9.3427 91.5635 8.94917C91.4194 8.28396 91.0728 7.68989 90.579 7.26165C90.0852 6.83341 89.4725 6.59564 88.8387 6.58626C87.7696 6.5576 86.6997 6.5576 85.629 6.58626C84.9177 6.59239 84.234 6.88362 83.711 7.40322C83.188 7.92283 82.8631 8.63361 82.7997 9.39716C82.7754 9.66949 82.7651 9.94305 82.7686 10.2166V26.8223H79.0314C79.0226 26.6177 79.0083 26.4397 79.0083 26.2626V9.94661C78.9318 8.1427 79.5023 6.37623 80.6015 5.01328C81.7007 3.65034 83.2443 2.79543 84.9125 2.62572C86.6194 2.46381 88.3371 2.48772 90.0395 2.69709C91.3816 2.90249 92.6156 3.60437 93.5302 4.68252L93.9539 4.29214C95.1503 3.1553 96.6929 2.53248 98.2879 2.54231C99.6272 2.48035 100.969 2.51252 102.304 2.63862C103.898 2.83458 105.369 3.65935 106.432 4.95405C107.496 6.24875 108.077 7.92177 108.064 9.65082C108.11 15.2528 108.073 20.8566 108.07 26.4595C108.07 26.5661 108.05 26.6727 108.033 26.8326" fill="white"/>
<path d="M58.1049 22.8401H61.8197C61.8588 23.3715 61.8572 23.8814 61.941 24.3776C62.0344 25.0349 62.3325 25.6384 62.7864 26.0889C63.2402 26.5395 63.8228 26.8102 64.4383 26.8566C65.6914 26.9387 66.9479 26.9387 68.201 26.8566C68.8937 26.7944 69.5393 26.4537 70.0096 25.9022C70.48 25.3507 70.7406 24.6288 70.7398 23.8797C70.7526 23.1855 70.7526 22.4913 70.7398 21.7971C70.7427 21.0576 70.4901 20.3435 70.031 19.7938C69.572 19.2441 68.9396 18.8983 68.2569 18.8237C67.0944 18.7128 65.9175 18.7661 64.7463 18.7515C63.2314 18.7668 61.7587 18.2145 60.5799 17.189C59.4011 16.1636 58.5894 14.7287 58.2836 13.1297C57.9358 11.3912 57.9548 9.59074 58.3394 7.86129C58.7018 6.3539 59.514 5.01676 60.651 4.05588C61.788 3.09501 63.1866 2.56372 64.6314 2.54388C66.0212 2.47359 67.4138 2.50606 68.7994 2.64105C70.3901 2.85101 71.8527 3.68701 72.9063 4.98846C73.9599 6.2899 74.5301 7.96499 74.5073 9.69194C74.5073 9.97999 74.5073 10.268 74.5073 10.5948H70.7446C70.7446 10.2887 70.7486 9.98515 70.7446 9.68334C70.7495 8.87922 70.4621 8.105 69.9439 7.52644C69.4257 6.94787 68.7179 6.61096 67.9721 6.58783C66.8702 6.54741 65.7651 6.54999 64.6625 6.58783C63.9582 6.60187 63.2841 6.89898 62.7725 7.4209C62.2609 7.94282 61.9487 8.65189 61.8971 9.40904C61.8199 10.3173 61.8354 11.2319 61.9434 12.1365C62.0368 12.8591 62.3725 13.5197 62.8869 13.9939C63.4014 14.468 64.0591 14.7228 64.7359 14.7101C66.0763 14.7385 67.4231 14.68 68.7539 14.8133C70.2737 15.0108 71.6803 15.7787 72.7271 16.9823C73.7739 18.186 74.394 19.7484 74.4786 21.3956C74.563 22.7412 74.5068 24.0928 74.3111 25.4249C74.0066 26.9678 73.2251 28.3537 72.0945 29.3556C70.9639 30.3575 69.5513 30.9162 68.0877 30.9401C66.5639 31.0534 65.0335 31.0025 63.5192 30.7879C61.982 30.5058 60.5901 29.6378 59.5971 28.3421C58.6041 27.0464 58.0762 25.4093 58.1096 23.7292V22.8444" fill="white"/>
<path d="M129.073 26.8331H125.357V18.8046H116.468V26.8151H112.718C112.71 26.6431 112.695 26.4651 112.695 26.2897C112.692 20.6868 112.692 15.0839 112.695 9.48106C112.742 7.70132 113.405 6.00493 114.553 4.72489C115.702 3.44485 117.252 2.67361 118.901 2.56258C120.444 2.46946 121.991 2.50424 123.529 2.66663C125.044 2.90935 126.431 3.71904 127.447 4.95371C128.464 6.18839 129.044 7.76926 129.088 9.41915C129.112 15.0943 129.096 20.7694 129.096 26.4445C129.096 26.552 129.086 26.6586 129.076 26.8314M125.318 14.6832C125.318 12.8698 125.393 11.1174 125.297 9.3753C125.247 8.60685 124.926 7.8883 124.399 7.36761C123.872 6.84693 123.18 6.56377 122.465 6.57643C121.414 6.55408 120.362 6.55408 119.309 6.57643C118.931 6.57867 118.557 6.66155 118.208 6.82029C117.86 6.97903 117.544 7.2105 117.279 7.50136C117.014 7.79222 116.805 8.13672 116.664 8.51501C116.523 8.8933 116.453 9.29789 116.458 9.70548C116.449 10.9815 116.458 12.2593 116.458 13.5362V14.6832H125.318Z" fill="white"/>
<path d="M40.9665 18.1218V26.8133H37.207V9.86449C37.1806 8.89306 37.339 7.9261 37.6723 7.02308C38.0056 6.12006 38.5069 5.30009 39.1452 4.61362C39.7835 3.92715 40.5454 3.38869 41.384 3.03137C42.2226 2.67404 43.1202 2.50542 44.0216 2.53586C45.3603 2.48689 46.7006 2.52681 48.0348 2.65538C49.5489 2.89743 50.9354 3.7068 51.9507 4.94127C52.966 6.17573 53.5451 7.75633 53.5863 9.40532C53.6464 10.7144 53.5758 12.0266 53.3757 13.3194C53.0642 14.8314 52.2899 16.1866 51.1773 17.1671C50.0648 18.1476 48.6786 18.6965 47.2417 18.7254C45.6675 18.7624 44.0926 18.6867 42.5184 18.5904C41.9872 18.4942 41.4672 18.3365 40.9673 18.1201M45.3779 14.7012C45.9229 14.7012 46.4646 14.7107 47.0072 14.7012C47.753 14.694 48.4667 14.3732 48.9964 13.8072C49.526 13.2412 49.8297 12.4748 49.8428 11.6711C49.8595 10.9969 49.8579 10.3211 49.8428 9.64609C49.8377 8.85064 49.5478 8.08802 49.0336 7.51735C48.5194 6.94668 47.8206 6.61204 47.083 6.58325C45.9659 6.53854 44.8425 6.5394 43.7231 6.58325C42.9858 6.61187 42.2873 6.94659 41.7737 7.51742C41.2601 8.08824 40.9712 8.85097 40.9673 9.64609C40.9562 10.3391 40.9506 11.0331 40.9673 11.7252C40.9909 12.5095 41.2919 13.2543 41.8085 13.8071C42.3252 14.3599 43.0185 14.6789 43.7463 14.6987C44.2912 14.7141 44.833 14.6987 45.3755 14.6987" fill="white"/>
<path d="M146.254 18.0716C144.004 19.1284 141.722 18.8008 139.489 18.689C137.938 18.5285 136.491 17.7718 135.415 16.5571C134.338 15.3425 133.702 13.751 133.624 12.0732C133.541 10.7103 133.608 9.34165 133.824 7.99571C134.146 6.44911 134.948 5.06698 136.097 4.07677C137.245 3.08656 138.673 2.54726 140.144 2.54761C141.584 2.49172 143.027 2.53278 144.462 2.67057C145.953 2.90967 147.319 3.70199 148.325 4.91078C149.331 6.11956 149.914 7.66895 149.973 9.29153C150.02 15.0191 149.992 20.7466 149.992 26.4751C149.992 26.5808 149.976 26.6849 149.964 26.8242H146.253L146.254 18.0716ZM141.786 14.707C142.331 14.707 142.873 14.7181 143.416 14.707C144.161 14.6971 144.873 14.3729 145.4 13.804C145.926 13.235 146.224 12.4664 146.231 11.663C146.242 10.9883 146.242 10.3133 146.231 9.63805C146.227 8.85272 145.943 8.09922 145.438 7.53265C144.933 6.96609 144.246 6.62958 143.519 6.59241C142.384 6.53996 141.244 6.54856 140.108 6.59241C139.464 6.60315 138.845 6.85829 138.359 7.31289C137.873 7.76748 137.551 8.39236 137.451 9.07742C137.321 10.0698 137.31 11.076 137.417 12.0715C137.499 12.8254 137.843 13.5177 138.381 14.0082C138.918 14.4986 139.608 14.7506 140.312 14.713C140.804 14.7181 141.296 14.713 141.788 14.713" fill="white"/>
<path d="M20.318 15.2445C19.2886 15.2004 18.2636 15.0756 17.251 14.8713C16.112 14.5417 15.1058 13.8161 14.3885 12.8072C13.6713 11.7984 13.283 10.5626 13.284 9.29161C13.2318 7.8164 13.2702 6.33908 13.3989 4.86933C13.6056 3.54226 14.2339 2.33387 15.1762 1.45093C16.1184 0.567996 17.3161 0.0654002 18.5643 0.0291459C19.9875 -0.0341963 21.413 0.00573434 22.8312 0.148667C24.041 0.349653 25.1486 0.996325 25.9656 1.97856C26.7826 2.9608 27.2584 4.21788 27.3121 5.53572C27.4134 7.17263 27.3717 8.81618 27.1876 10.4447C26.9699 11.7338 26.3462 12.9026 25.4218 13.7537C24.4973 14.6047 23.3287 15.086 22.1132 15.1163C21.5204 15.1464 20.9251 15.1206 20.3307 15.1206L20.3212 15.2436" fill="#FF2800"/>
<path d="M20.2917 29.4647C19.1408 29.4623 17.9914 29.3762 16.8513 29.2067C15.74 28.9372 14.7607 28.2333 14.1029 27.231C13.445 26.2287 13.1553 24.9992 13.2897 23.7801C13.4218 22.5618 13.959 21.4363 14.8019 20.612C15.6448 19.7877 16.7362 19.3205 17.8742 19.2968C19.5231 19.2813 21.1697 19.2813 22.8138 19.2968C24.0193 19.3168 25.1709 19.8387 26.0274 20.7532C26.8839 21.6678 27.3789 22.9039 27.4087 24.2029C27.4385 25.5019 27.0008 26.7629 26.1873 27.7219C25.3738 28.6809 24.2475 29.2635 23.0444 29.3477C22.1308 29.4028 21.2093 29.3572 20.2965 29.3572C20.2983 29.3921 20.2983 29.4272 20.2965 29.4621" fill="#FF2800"/>
<path d="M9.46099 7.59331C9.47083 8.81187 9.40312 10.0297 9.25833 11.2383C9.01138 12.4764 8.33443 13.5658 7.36619 14.2833C6.39795 15.0008 5.21175 15.292 4.05067 15.0974C2.95877 14.9398 1.95443 14.3689 1.21706 13.4868C0.479691 12.6048 0.057334 11.4689 0.0254399 10.2821C-0.0072726 8.46006 -0.0096662 6.63371 0.0254399 4.80993C0.0759833 3.5277 0.582 2.31549 1.43878 1.42415C2.29555 0.532803 3.43751 0.0305574 4.62832 0.0213426C5.83675 -0.0137028 7.01014 0.460936 7.89874 1.34422C8.78733 2.22751 9.32094 3.44969 9.38599 4.7506C9.4211 5.69645 9.39158 6.64746 9.39158 7.59589L9.46099 7.59331Z" fill="#FF2800"/>
<path d="M4.66298 29.3763C3.73883 29.3509 2.84239 29.0309 2.08689 28.4568C1.33139 27.8826 0.750712 27.0801 0.418196 26.1504C0.0856796 25.2208 0.0162415 24.2059 0.218652 23.2338C0.421062 22.2617 0.886241 21.376 1.55544 20.6886C2.22463 20.0013 3.06783 19.5431 3.97852 19.3719C4.88922 19.2007 5.82657 19.3241 6.67218 19.7267C7.5178 20.1293 8.23374 20.7929 8.7296 21.6338C9.22546 22.4746 9.47898 23.455 9.45815 24.451C9.44355 25.1138 9.30792 25.767 9.059 26.3732C8.81009 26.9795 8.45277 27.527 8.00746 27.9844C7.56215 28.4418 7.03758 28.8001 6.46372 29.0389C5.88986 29.2778 5.27796 29.3924 4.66298 29.3763Z" fill="#FF2800"/>
</svg>
