<svg width="16" height="16" viewBox="0 0 16 16" fill="none" xmlns="http://www.w3.org/2000/svg">
<path d="M7.40789 15.5767L6.4742 12.8223C5.95855 11.3011 4.7582 10.0614 3.17751 9.52562L0.423171 8.59197C-0.141267 8.40062 -0.141173 7.59928 0.423171 7.40797L3.17751 6.47428C4.6987 5.95866 5.93839 4.75825 6.4742 3.17759L7.40789 0.423281C7.59923 -0.141156 8.40058 -0.141031 8.59189 0.423281L9.52558 3.17759C10.0412 4.69878 11.2416 5.93847 12.8223 6.47428L15.5766 7.40797C16.141 7.59931 16.1409 8.40065 15.5766 8.59197L12.8223 9.52562C11.3011 10.0412 10.0614 11.2417 9.52558 12.8223L8.59189 15.5767C8.40055 16.1411 7.59917 16.1409 7.40789 15.5767ZM2.57092 7.99994L3.57889 8.34159C5.4612 8.97966 6.9952 10.465 7.65823 12.4209L7.99989 13.4289L8.34158 12.4209C8.97964 10.5386 10.465 9.00462 12.4209 8.34159L13.4289 7.99994L12.4209 7.65825C10.5386 7.02019 9.00458 5.53484 8.34155 3.57891L7.99989 2.57094L7.6582 3.57891C7.02014 5.46122 5.5348 6.99522 3.57889 7.65825L2.57092 7.99994Z" fill="#FF2800"/>
</svg>
