<svg width="22" height="22" viewBox="0 0 22 22" fill="none" xmlns="http://www.w3.org/2000/svg">
<g clip-path="url(#clip0_366_969)">
<path d="M10.1859 21.4179L8.90207 17.6307C8.19305 15.539 6.54257 13.8344 4.36913 13.0977L0.581906 11.814C-0.194196 11.5509 -0.194067 10.449 0.581906 10.186L4.36913 8.90214C6.46076 8.19315 8.16533 6.54259 8.90207 4.36919L10.1859 0.582012C10.449 -0.19409 11.5508 -0.193918 11.8139 0.582012L13.0977 4.36919C13.8067 6.46082 15.4572 8.16539 17.6307 8.90214L21.4179 10.186C22.194 10.4491 22.1938 11.5509 21.4179 11.814L17.6307 13.0977C15.5391 13.8067 13.8345 15.4573 13.0977 17.6307L11.8139 21.4179C11.5508 22.194 10.4489 22.1938 10.1859 21.4179ZM3.53506 10.9999L4.92102 11.4697C7.5092 12.347 9.61845 14.3894 10.5301 17.0788L10.9999 18.4647L11.4697 17.0788C12.347 14.4906 14.3894 12.3814 17.0788 11.4697L18.4647 10.9999L17.0788 10.5301C14.4906 9.65276 12.3813 7.61041 11.4697 4.921L10.9999 3.53504L10.5301 4.921C9.65274 7.50917 7.61039 9.61842 4.92102 10.5301L3.53506 10.9999Z" fill="#141313"/>
</g>
<defs>
<clipPath id="clip0_366_969">
<rect width="22" height="22" fill="white"/>
</clipPath>
</defs>
</svg>
