<svg width="644" height="489" viewBox="0 0 644 489" fill="none" xmlns="http://www.w3.org/2000/svg">
<g clip-path="url(#clip0_1321_32047)">
<path d="M324.026 0H36.7393C26.9988 0.0109682 17.6603 3.88541 10.7728 10.7733C3.88519 17.6612 0.0109435 27 0 36.7409V374.089C0.0109455 383.83 3.8852 393.169 10.7728 400.057C17.6604 406.945 26.9988 410.819 36.7393 410.83H324.026C333.766 410.819 343.105 406.945 349.992 400.057C356.88 393.169 360.754 383.83 360.765 374.089V36.7409C360.754 27 356.88 17.6612 349.992 10.7733C343.105 3.88541 333.766 0.0109682 324.026 0Z" fill="#F2F2F2"/>
<path d="M324.027 10.5781H36.7396C29.8032 10.5859 23.153 13.3449 18.2482 18.25C13.3434 23.155 10.5844 29.8054 10.5767 36.7421V374.09C10.5845 381.027 13.3434 387.678 18.2482 392.583C23.153 397.488 29.8032 400.247 36.7396 400.254H324.027C330.963 400.247 337.613 397.487 342.518 392.582C347.422 387.677 350.181 381.027 350.189 374.09V36.7421C350.181 29.8054 347.422 23.1551 342.518 18.2501C337.613 13.3451 330.963 10.586 324.027 10.5781Z" fill="white"/>
<path d="M280.789 108.67H135.51C133.888 108.67 132.331 108.026 131.184 106.878C130.037 105.731 129.392 104.175 129.392 102.552C129.392 100.929 130.037 99.373 131.184 98.2256C132.331 97.0782 133.888 96.4336 135.51 96.4336H280.789C281.592 96.4336 282.388 96.5919 283.13 96.8993C283.873 97.2068 284.547 97.6575 285.115 98.2256C285.683 98.7938 286.134 99.4683 286.441 100.211C286.749 100.953 286.907 101.748 286.907 102.552C286.907 103.355 286.749 104.151 286.441 104.893C286.134 105.636 285.683 106.31 285.115 106.878C284.547 107.446 283.873 107.897 283.13 108.205C282.388 108.512 281.592 108.67 280.789 108.67Z" fill="#F2F2F2"/>
<path d="M306.026 129.319H135.51C133.889 129.317 132.334 128.672 131.188 127.524C130.043 126.377 129.399 124.822 129.399 123.2C129.399 121.579 130.043 120.024 131.188 118.876C132.334 117.729 133.889 117.084 135.51 117.082H306.026C307.648 117.084 309.202 117.729 310.348 118.876C311.494 120.024 312.137 121.579 312.137 123.2C312.137 124.822 311.494 126.377 310.348 127.524C309.202 128.672 307.648 129.317 306.026 129.319Z" fill="#F2F2F2"/>
<path d="M280.789 201.209H135.51C133.888 201.209 132.331 200.565 131.184 199.417C130.037 198.27 129.392 196.714 129.392 195.091C129.392 193.468 130.037 191.912 131.184 190.765C132.331 189.617 133.888 188.973 135.51 188.973H280.789C281.592 188.973 282.388 189.131 283.13 189.438C283.873 189.746 284.547 190.197 285.115 190.765C285.683 191.333 286.134 192.007 286.441 192.75C286.749 193.492 286.907 194.288 286.907 195.091C286.907 195.894 286.749 196.69 286.441 197.432C286.134 198.175 285.683 198.849 285.115 199.417C284.547 199.985 283.873 200.436 283.13 200.744C282.388 201.051 281.592 201.209 280.789 201.209Z" fill="#F2F2F2"/>
<path d="M306.026 221.862H135.51C133.889 221.86 132.334 221.214 131.188 220.067C130.043 218.92 129.399 217.365 129.399 215.743C129.399 214.122 130.043 212.567 131.188 211.419C132.334 210.272 133.889 209.627 135.51 209.625H306.026C307.648 209.627 309.202 210.272 310.348 211.419C311.494 212.567 312.137 214.122 312.137 215.743C312.137 217.365 311.494 218.92 310.348 220.067C309.202 221.214 307.648 221.86 306.026 221.862Z" fill="#F2F2F2"/>
<path d="M280.789 293.752H135.51C133.888 293.752 132.331 293.108 131.184 291.96C130.037 290.813 129.392 289.257 129.392 287.634C129.392 286.011 130.037 284.455 131.184 283.308C132.331 282.16 133.888 281.516 135.51 281.516H280.789C281.593 281.515 282.389 281.672 283.132 281.979C283.876 282.286 284.551 282.737 285.12 283.305C285.688 283.873 286.14 284.548 286.448 285.291C286.755 286.034 286.914 286.83 286.914 287.634C286.914 288.438 286.755 289.234 286.448 289.977C286.14 290.72 285.688 291.394 285.12 291.963C284.551 292.531 283.876 292.981 283.132 293.289C282.389 293.596 281.593 293.753 280.789 293.752Z" fill="#F2F2F2"/>
<path d="M306.026 314.397H135.51C133.889 314.395 132.334 313.75 131.188 312.602C130.043 311.455 129.399 309.9 129.399 308.278C129.399 306.657 130.043 305.102 131.188 303.955C132.334 302.807 133.889 302.162 135.51 302.16H306.026C307.648 302.162 309.202 302.807 310.348 303.955C311.494 305.102 312.137 306.657 312.137 308.278C312.137 309.9 311.494 311.455 310.348 312.602C309.202 313.75 307.648 314.395 306.026 314.397Z" fill="#F2F2F2"/>
<path d="M102.967 138.689H51.5542C50.7764 138.688 50.0308 138.378 49.4808 137.828C48.9308 137.278 48.6215 136.533 48.6206 135.755V89.9884C48.6215 89.2106 48.9308 88.4649 49.4808 87.9149C50.0308 87.3649 50.7764 87.0555 51.5542 87.0547H102.967C103.745 87.0555 104.491 87.3649 105.04 87.9149C105.59 88.4649 105.9 89.2106 105.901 89.9884V135.755C105.9 136.533 105.59 137.278 105.04 137.828C104.491 138.378 103.745 138.688 102.967 138.689Z" fill="#E6E6E6"/>
<path d="M102.967 231.232H51.5542C50.7764 231.231 50.0308 230.921 49.4808 230.371C48.9308 229.821 48.6215 229.076 48.6206 228.298V182.531C48.6215 181.754 48.9308 181.008 49.4808 180.458C50.0308 179.908 50.7764 179.599 51.5542 179.598H102.967C103.745 179.599 104.491 179.908 105.04 180.458C105.59 181.008 105.9 181.754 105.901 182.531V228.298C105.9 229.076 105.59 229.821 105.04 230.371C104.49 230.921 103.745 231.231 102.967 231.232Z" fill="#E6E6E6"/>
<path d="M102.967 323.775H51.5542C50.7764 323.774 50.0308 323.464 49.4808 322.914C48.9308 322.364 48.6215 321.619 48.6206 320.841V275.074C48.6215 274.297 48.9308 273.551 49.4808 273.001C50.0308 272.451 50.7764 272.141 51.5542 272.141H102.967C103.745 272.141 104.491 272.451 105.04 273.001C105.59 273.551 105.9 274.297 105.901 275.074V320.841C105.9 321.619 105.59 322.364 105.04 322.914C104.491 323.464 103.745 323.774 102.967 323.775Z" fill="#E6E6E6"/>
<path d="M577.106 319.052L579.385 299.12L590.813 199.179L593.092 179.246C594.188 169.567 591.4 159.849 585.339 152.223C579.279 144.597 570.441 139.687 560.765 138.569L301.462 108.917C291.783 107.821 282.065 110.61 274.439 116.671C266.814 122.731 261.904 131.569 260.786 141.246L260.78 141.298L244.806 281.001L244.8 281.052C243.705 290.731 246.493 300.45 252.554 308.076C258.614 315.701 267.452 320.612 277.128 321.729L536.431 351.381C546.11 352.477 555.828 349.689 563.453 343.628C571.079 337.567 575.989 328.729 577.106 319.052Z" fill="#E6E6E6"/>
<path d="M566.598 317.854L569.298 294.245L579.885 201.656L582.584 178.047C583.364 171.155 581.379 164.234 577.063 158.803C572.747 153.373 566.454 149.876 559.563 149.08L300.26 119.428C293.368 118.648 286.447 120.633 281.017 124.949C275.587 129.265 272.09 135.559 271.294 142.45L271.288 142.502L255.314 282.205L255.308 282.257C254.528 289.149 256.514 296.07 260.83 301.501C265.145 306.931 271.439 310.428 278.33 311.223L537.632 340.876C544.525 341.656 551.445 339.67 556.876 335.354C562.306 331.038 565.802 324.745 566.598 317.854Z" fill="white"/>
<path d="M524.154 191.18L379.816 174.674C379.017 174.584 378.244 174.337 377.541 173.947C376.838 173.558 376.218 173.033 375.717 172.404C375.217 171.775 374.845 171.053 374.624 170.28C374.402 169.508 374.335 168.699 374.427 167.9C374.518 167.101 374.766 166.328 375.156 165.625C375.546 164.922 376.071 164.303 376.701 163.803C377.33 163.303 378.052 162.932 378.826 162.712C379.599 162.491 380.408 162.425 381.206 162.517L525.545 179.022C527.155 179.208 528.627 180.026 529.635 181.296C530.643 182.566 531.106 184.184 530.922 185.796C530.738 187.407 529.921 188.879 528.652 189.888C527.383 190.898 525.766 191.362 524.154 191.18Z" fill="#E6E6E6"/>
<path d="M546.882 214.563L377.47 195.19C376.671 195.099 375.898 194.852 375.195 194.463C374.492 194.073 373.872 193.549 373.372 192.92C372.871 192.29 372.5 191.569 372.278 190.796C372.057 190.023 371.99 189.214 372.081 188.415C372.172 187.617 372.42 186.844 372.811 186.141C373.201 185.438 373.726 184.819 374.355 184.319C374.985 183.819 375.707 183.448 376.48 183.227C377.253 183.007 378.062 182.94 378.86 183.032L548.272 202.405C549.071 202.497 549.843 202.744 550.546 203.134C551.248 203.524 551.867 204.048 552.367 204.677C552.867 205.306 553.238 206.027 553.459 206.8C553.68 207.572 553.747 208.381 553.656 209.179C553.565 209.977 553.317 210.75 552.927 211.452C552.537 212.155 552.013 212.774 551.384 213.274C550.755 213.774 550.034 214.145 549.261 214.366C548.489 214.587 547.681 214.654 546.882 214.563Z" fill="#E6E6E6"/>
<path d="M542.159 255.484L292.393 226.923C290.782 226.737 289.311 225.919 288.303 224.649C287.295 223.379 286.832 221.761 287.016 220.15C287.2 218.539 288.016 217.067 289.285 216.057C290.554 215.047 292.172 214.583 293.783 214.765L543.549 243.327C544.348 243.418 545.121 243.665 545.824 244.054C546.527 244.444 547.147 244.968 547.648 245.597C548.148 246.226 548.52 246.948 548.741 247.721C548.963 248.494 549.03 249.303 548.938 250.101C548.847 250.9 548.599 251.673 548.209 252.376C547.819 253.079 547.294 253.698 546.664 254.198C546.035 254.698 545.313 255.069 544.54 255.29C543.767 255.51 542.958 255.577 542.159 255.484Z" fill="#E6E6E6"/>
<path d="M540.616 276.084L290.048 247.431C288.437 247.245 286.966 246.427 285.957 245.157C284.949 243.887 284.486 242.269 284.67 240.658C284.855 239.047 285.671 237.574 286.94 236.565C288.209 235.555 289.827 235.091 291.438 235.273L542.006 263.927C543.617 264.112 545.088 264.93 546.097 266.2C547.105 267.47 547.568 269.089 547.383 270.7C547.199 272.311 546.383 273.783 545.114 274.792C543.845 275.802 542.227 276.267 540.616 276.084Z" fill="#E6E6E6"/>
<path d="M537.562 295.689L287.796 267.127C286.998 267.037 286.224 266.79 285.521 266.4C284.818 266.011 284.198 265.486 283.698 264.857C283.197 264.228 282.825 263.506 282.604 262.734C282.382 261.961 282.315 261.152 282.407 260.353C282.498 259.554 282.746 258.781 283.136 258.078C283.526 257.375 284.051 256.756 284.681 256.256C285.311 255.756 286.033 255.385 286.806 255.165C287.579 254.944 288.388 254.878 289.187 254.97L538.952 283.531C540.563 283.717 542.034 284.535 543.043 285.805C544.051 287.075 544.514 288.693 544.33 290.305C544.145 291.916 543.329 293.388 542.06 294.397C540.791 295.407 539.173 295.872 537.562 295.689Z" fill="#E6E6E6"/>
<path d="M536.019 316.295L285.451 287.642C283.84 287.456 282.369 286.638 281.36 285.368C280.352 284.098 279.889 282.48 280.074 280.869C280.258 279.257 281.074 277.785 282.343 276.776C283.612 275.766 285.23 275.302 286.841 275.484L537.409 304.137C538.208 304.228 538.981 304.475 539.685 304.865C540.388 305.254 541.008 305.779 541.508 306.408C542.009 307.037 542.38 307.758 542.602 308.531C542.823 309.304 542.89 310.113 542.799 310.912C542.708 311.711 542.46 312.484 542.069 313.187C541.679 313.89 541.154 314.509 540.525 315.009C539.895 315.509 539.173 315.88 538.4 316.1C537.627 316.321 536.818 316.387 536.019 316.295Z" fill="#E6E6E6"/>
<path d="M344.073 200.808L292.993 194.967C292.22 194.878 291.515 194.486 291.031 193.877C290.547 193.268 290.324 192.492 290.412 191.719L295.611 146.249C295.7 145.476 296.092 144.77 296.701 144.286C297.31 143.802 298.086 143.58 298.859 143.667L349.939 149.508C350.711 149.597 351.417 149.99 351.901 150.598C352.385 151.207 352.608 151.983 352.52 152.756L347.321 198.226C347.232 198.999 346.84 199.705 346.231 200.189C345.622 200.673 344.846 200.895 344.073 200.808Z" fill="#FF2800"/>
<path d="M643.237 488.879H476.049C475.847 488.879 475.653 488.799 475.509 488.656C475.366 488.512 475.286 488.318 475.286 488.115C475.286 487.913 475.366 487.719 475.509 487.575C475.653 487.432 475.847 487.352 476.049 487.352H643.237C643.439 487.352 643.634 487.432 643.777 487.575C643.92 487.719 644 487.913 644 488.115C644 488.318 643.92 488.512 643.777 488.656C643.634 488.799 643.439 488.879 643.237 488.879Z" fill="#3F3D56"/>
<path d="M580.458 197.214C580.201 198.228 580.17 199.287 580.366 200.315C580.562 201.343 580.982 202.315 581.595 203.163C582.207 204.012 582.999 204.716 583.913 205.225C584.827 205.734 585.842 206.037 586.886 206.112L592.058 221.632L602.255 220.789L594.644 198.975C594.653 197.213 594.016 195.508 592.853 194.185C591.69 192.861 590.082 192.01 588.333 191.793C586.584 191.576 584.817 192.008 583.366 193.007C581.914 194.006 580.88 195.503 580.458 197.214Z" fill="#FFB8B8"/>
<path d="M588.268 298.845C589.463 299.943 590.927 300.706 592.511 301.057C594.095 301.408 595.744 301.335 597.291 300.846C598.839 300.356 600.229 299.467 601.323 298.268C602.417 297.069 603.175 295.603 603.521 294.018L611.597 257.011C612.979 250.683 612.653 244.101 610.655 237.94L601.202 208.795C601.067 208.377 600.842 207.993 600.545 207.669C600.247 207.346 599.883 207.09 599.477 206.92C599.071 206.751 598.634 206.67 598.194 206.685C597.755 206.7 597.324 206.81 596.931 207.007L590.761 210.095C590.123 210.415 589.616 210.949 589.33 211.604C589.044 212.258 588.997 212.993 589.196 213.679L589.818 215.818C594.991 233.607 595.262 252.462 590.604 270.392L585.58 289.731C585.159 291.351 585.187 293.055 585.66 294.661C586.134 296.266 587.035 297.713 588.268 298.845Z" fill="#FF2800"/>
<path d="M555.951 480.9L547.223 480.899L543.073 447.234L555.954 447.235L555.951 480.9Z" fill="#FFB8B8"/>
<path d="M540.989 478.398H557.82V488.997H530.391C530.391 487.605 530.665 486.227 531.198 484.941C531.73 483.655 532.511 482.487 533.495 481.503C534.479 480.518 535.647 479.738 536.933 479.205C538.219 478.673 539.597 478.398 540.989 478.398Z" fill="#2F2E41"/>
<path d="M602.993 480.9L594.266 480.899L590.115 447.234L602.996 447.235L602.993 480.9Z" fill="#FFB8B8"/>
<path d="M588.031 478.398H604.863V488.997H577.434C577.434 487.605 577.708 486.227 578.24 484.941C578.773 483.655 579.553 482.487 580.538 481.503C581.522 480.518 582.69 479.738 583.976 479.205C585.261 478.673 586.64 478.398 588.031 478.398Z" fill="#2F2E41"/>
<path d="M577.433 241.576C587.789 241.576 596.184 233.181 596.184 222.825C596.184 212.469 587.789 204.074 577.433 204.074C567.078 204.074 558.683 212.469 558.683 222.825C558.683 233.181 567.078 241.576 577.433 241.576Z" fill="#FFB8B8"/>
<path d="M513.32 345.114C513.451 344.076 513.808 343.079 514.366 342.194C514.923 341.308 515.669 340.556 516.549 339.99C517.429 339.423 518.423 339.057 519.46 338.916C520.497 338.776 521.552 338.864 522.551 339.175L533.03 326.613L542.217 331.12L527.169 348.652C526.535 350.296 525.32 351.65 523.754 352.458C522.188 353.266 520.381 353.471 518.673 353.035C516.966 352.599 515.478 351.552 514.492 350.092C513.505 348.632 513.088 346.861 513.32 345.114Z" fill="#FFB8B8"/>
<path d="M581.998 241.568C584.82 241.629 587.623 241.092 590.223 239.993C592.822 238.893 595.16 237.256 597.082 235.189C599.004 233.121 600.466 230.67 601.374 227.998C602.281 225.325 602.612 222.49 602.346 219.68C602.08 216.87 601.222 214.148 599.829 211.693C598.436 209.238 596.539 207.105 594.263 205.436C591.987 203.766 589.384 202.597 586.624 202.005C583.864 201.413 581.01 201.412 578.25 202.002C574.126 199.499 569.332 197.814 564.527 198.242C559.723 198.671 554.971 201.524 553.174 206.001C551.377 210.478 553.307 216.379 557.775 218.198C560.639 219.365 563.874 218.799 566.93 218.329C569.987 217.858 573.321 217.551 575.982 219.129C578.642 220.706 579.838 224.935 577.455 226.907C576.192 227.994 575.29 229.439 574.87 231.052C574.449 232.664 574.53 234.366 575.101 235.931C576.298 239.028 579.566 241.516 581.998 241.568Z" fill="#2F2E41"/>
<path d="M605.262 344.374L608.588 470.602C608.599 471.023 608.523 471.441 608.365 471.831C608.206 472.221 607.969 472.574 607.668 472.868C607.367 473.162 607.008 473.391 606.614 473.54C606.22 473.688 605.8 473.754 605.38 473.732L594.423 473.173C593.724 473.138 593.058 472.863 592.538 472.395C592.017 471.927 591.673 471.294 591.563 470.603L578.531 388.617C578.475 388.266 578.299 387.946 578.032 387.711C577.765 387.476 577.425 387.342 577.07 387.331C576.715 387.32 576.367 387.433 576.087 387.651C575.806 387.868 575.61 388.177 575.533 388.524L557.892 467.462C557.798 467.884 557.615 468.281 557.356 468.627C557.097 468.973 556.767 469.26 556.388 469.469C556.01 469.678 555.591 469.804 555.161 469.839C554.73 469.874 554.296 469.818 553.889 469.673L543.015 469.009C542.386 468.785 541.848 468.361 541.482 467.803C541.117 467.244 540.945 466.58 540.992 465.914L550.484 343.18L605.262 344.374Z" fill="#2F2E41"/>
<path d="M610.599 284.419C612.434 265.29 598.37 247.989 579.203 246.628C570.945 246.041 558.124 245.832 553.897 256.657C541.165 289.266 563.453 288.474 555.774 316.727C548.095 344.98 541.313 346.599 551.849 348.639C562.386 350.679 609.767 362.722 607.821 342.837C606.626 330.614 608.77 303.499 610.599 284.419Z" fill="#FF2800"/>
<path d="M557.678 253.337C559.191 252.751 560.833 252.575 562.436 252.826C564.039 253.077 565.547 253.747 566.809 254.767C568.071 255.788 569.041 257.123 569.622 258.638C570.203 260.154 570.374 261.795 570.117 263.398L564.133 300.8C563.109 307.195 560.405 313.204 556.296 318.211L536.86 341.897C536.581 342.237 536.232 342.512 535.837 342.705C535.441 342.897 535.009 343.002 534.57 343.012C534.13 343.022 533.693 342.937 533.29 342.763C532.886 342.589 532.524 342.33 532.23 342.003L527.614 336.876C527.135 336.345 526.859 335.663 526.831 334.949C526.804 334.235 527.028 333.534 527.464 332.968L528.824 331.204C540.131 316.529 547.264 299.073 549.47 280.68L551.849 260.842C552.048 259.179 552.696 257.603 553.723 256.281C554.75 254.959 556.117 253.941 557.678 253.337Z" fill="#FF2800"/>
</g>
<defs>
<clipPath id="clip0_1321_32047">
<rect width="644" height="489" fill="white"/>
</clipPath>
</defs>
</svg>
